<svg width="572" height="38" viewBox="0 0 572 38" fill="none" xmlns="http://www.w3.org/2000/svg">
<path d="M68.931 12.7188L68.4357 11.303L68.931 12.7188ZM134.975 1.49977L134.975 -0.000230786L134.975 1.49977ZM459.804 1.49989L459.804 -0.000111076L459.804 -0.000110841L459.804 1.49989ZM498.818 5.34209L499.111 3.87091L498.818 5.34209ZM570.833 20.7469C571.522 20.2866 571.707 19.3551 571.247 18.6663L563.747 7.4416C563.287 6.75279 562.355 6.56753 561.666 7.02779C560.977 7.48805 560.792 8.41955 561.252 9.10836L567.919 19.0859L557.942 25.7529C557.253 26.2132 557.068 27.1447 557.528 27.8335C557.988 28.5223 558.92 28.7075 559.609 28.2473L570.833 20.7469ZM1.30861 37.9652L69.4264 14.1347L68.4357 11.303L0.317958 35.1335L1.30861 37.9652ZM134.975 2.99977L459.804 2.99989L459.804 -0.000110841L134.975 -0.000230786L134.975 2.99977ZM498.525 6.81328L569.707 20.9709L570.293 18.0285L499.111 3.87091L498.525 6.81328ZM459.804 2.99989C472.805 2.9999 485.774 4.27716 498.525 6.81328L499.111 3.87091C486.167 1.29646 473.001 -0.000101877 459.804 -0.000111076L459.804 2.99989ZM69.4264 14.1347C90.4944 6.76421 112.655 2.99976 134.975 2.99977L134.975 -0.000230786C112.317 -0.000235929 89.8221 3.8211 68.4357 11.303L69.4264 14.1347Z" fill="#FF7F50"/>
</svg>
