<svg width="605" height="82" viewBox="0 0 605 82" fill="none" xmlns="http://www.w3.org/2000/svg">
<path d="M12.7233 8.86337L13.5211 7.59315L12.7233 8.86337ZM119.1 39.5L119.1 38L119.1 39.5ZM483.074 39.5L483.074 41L483.074 39.5ZM572.029 60.3715L571.362 61.7149L572.029 60.3715ZM603.978 77.4217C604.763 77.1576 605.186 76.3069 604.922 75.5217L600.618 62.7262C600.354 61.941 599.503 61.5186 598.718 61.7827C597.933 62.0468 597.51 62.8974 597.774 63.6826L601.6 75.0564L590.226 78.8822C589.441 79.1463 589.019 79.9969 589.283 80.7821C589.547 81.5673 590.397 81.9897 591.183 81.7256L603.978 77.4217ZM0.202175 2.77024L11.9254 10.1336L13.5211 7.59315L1.79783 0.229794L0.202175 2.77024ZM119.1 41L483.074 41L483.074 38L119.1 38L119.1 41ZM571.362 61.7149L602.833 77.3434L604.167 74.6565L572.696 59.028L571.362 61.7149ZM483.074 41C513.707 41 543.925 48.09 571.362 61.7149L572.696 59.028C544.845 45.1971 514.17 38 483.074 38L483.074 41ZM11.9254 10.1336C44.0346 30.3013 81.1826 41 119.1 41L119.1 38C81.7472 38 45.1522 27.4606 13.5211 7.59315L11.9254 10.1336Z" fill="#FF7F50"/>
</svg>
