<svg width="614" height="86" viewBox="0 0 614 86" fill="none" xmlns="http://www.w3.org/2000/svg">
<path d="M0.0390759 80.1597C-0.148804 80.9665 0.352965 81.7729 1.1598 81.9608L14.308 85.0225C15.1149 85.2103 15.9213 84.7086 16.1091 83.9017C16.297 83.0949 15.7953 82.2885 14.9884 82.1006L3.30109 79.3791L6.02258 67.6918C6.21046 66.885 5.70869 66.0786 4.90185 65.8907C4.095 65.7029 3.28862 66.2046 3.10074 67.0115L0.0390759 80.1597ZM18.7945 69.7384L19.587 71.012L18.7945 69.7384ZM124.458 39.5478L124.458 41.0478L124.458 39.5478ZM488.979 39.5478L488.979 41.0478L488.979 39.5478ZM577.778 18.7535L577.112 17.4095L577.778 18.7535ZM2.29247 81.7734L19.587 71.012L18.002 68.4648L0.707514 79.2263L2.29247 81.7734ZM124.458 41.0478L488.979 41.0478L488.979 38.0478L124.458 38.0478L124.458 41.0478ZM578.444 20.0976L613.166 2.89236L611.834 0.204277L577.112 17.4095L578.444 20.0976ZM488.979 41.0478C520.016 41.0478 550.634 33.878 578.444 20.0976L577.112 17.4095C549.716 30.9847 519.554 38.0478 488.979 38.0478L488.979 41.0478ZM19.587 71.012C51.0604 51.4278 87.3888 41.0478 124.458 41.0478L124.458 38.0478C86.8286 38.0478 49.9511 48.5846 18.002 68.4648L19.587 71.012Z" fill="#FF7F50"/>
</svg>
