<svg width="27" height="27" viewBox="0 0 27 27" fill="none" xmlns="http://www.w3.org/2000/svg">
<path fill-rule="evenodd" clip-rule="evenodd" d="M12.4875 0H10.8C5.70915 0 3.16305 -1.55116e-07 1.5822 1.52501C-1.60933e-07 3.04872 0 5.5028 0 10.4096V13.012C0 17.9189 -1.60933e-07 20.373 1.5822 21.8967C1.99633 22.2935 2.49206 22.6025 3.0375 22.8036V26.0241C3.0375 26.2829 3.14417 26.5311 3.33405 26.7142C3.52393 26.8972 3.78147 27 4.05 27C4.31853 27 4.57607 26.8972 4.76595 26.7142C4.95583 26.5311 5.0625 26.2829 5.0625 26.0241V23.2538C6.507 23.4217 8.3619 23.4217 10.8 23.4217H12.4875V0ZM9.45 8.13253C9.71853 8.13253 9.97606 8.23535 10.1659 8.41837C10.3558 8.60138 10.4625 8.84961 10.4625 9.10843V14.3133C10.4625 14.5721 10.3558 14.8203 10.1659 15.0033C9.97606 15.1863 9.71853 15.2892 9.45 15.2892C9.18147 15.2892 8.92394 15.1863 8.73406 15.0033C8.54417 14.8203 8.4375 14.5721 8.4375 14.3133V9.10843C8.4375 8.84961 8.54417 8.60138 8.73406 8.41837C8.92394 8.23535 9.18147 8.13253 9.45 8.13253ZM14.5125 23.4217H16.2C18.6381 23.4217 20.493 23.4217 21.9375 23.2538V26.0241C21.9375 26.2829 22.0442 26.5311 22.2341 26.7142C22.4239 26.8972 22.6815 27 22.95 27C23.2185 27 23.4761 26.8972 23.6659 26.7142C23.8558 26.5311 23.9625 26.2829 23.9625 26.0241V22.8036C24.5079 22.6025 25.0037 22.2935 25.4178 21.8967C27 20.373 27 17.9189 27 13.012V10.4096C27 5.5028 27 3.04872 25.4178 1.52501C23.8369 -1.55116e-07 21.2908 0 16.2 0H14.5125V23.4217ZM17.55 8.13253C17.8185 8.13253 18.0761 8.23535 18.2659 8.41837C18.4558 8.60138 18.5625 8.84961 18.5625 9.10843V14.3133C18.5625 14.5721 18.4558 14.8203 18.2659 15.0033C18.0761 15.1863 17.8185 15.2892 17.55 15.2892C17.2815 15.2892 17.0239 15.1863 16.8341 15.0033C16.6442 14.8203 16.5375 14.5721 16.5375 14.3133V9.10843C16.5375 8.84961 16.6442 8.60138 16.8341 8.41837C17.0239 8.23535 17.2815 8.13253 17.55 8.13253Z" fill="white"/>
</svg>
