<svg width="29" height="28" viewBox="0 0 29 28" fill="none" xmlns="http://www.w3.org/2000/svg">
<path d="M12.7941 7.875C12.7941 6.48261 12.2549 5.14725 11.2952 4.16269C10.3354 3.17812 9.03375 2.625 7.67647 2.625C6.31919 2.625 5.01749 3.17812 4.05775 4.16269C3.098 5.14725 2.55882 6.48261 2.55882 7.875C2.55882 9.26739 3.098 10.6027 4.05775 11.5873C5.01749 12.5719 6.31919 13.125 7.67647 13.125C9.03375 13.125 10.3354 12.5719 11.2952 11.5873C12.2549 10.6027 12.7941 9.26739 12.7941 7.875ZM15.161 9.625C14.3881 13.1305 11.3281 15.75 7.67647 15.75C3.43842 15.75 0 12.2227 0 7.875C0 3.52734 3.43842 0 7.67647 0C11.3281 0 14.3881 2.61953 15.161 6.125H18.9886C19.4577 5.58906 20.1401 5.25 20.8971 5.25H26.4412C27.8539 5.25 29 6.42578 29 7.875C29 9.32422 27.8539 10.5 26.4412 10.5H20.8971C20.1401 10.5 19.4577 10.1609 18.9886 9.625H15.161ZM7.67647 4.375C8.58133 4.375 9.44912 4.74375 10.089 5.40013C10.7288 6.0565 11.0882 6.94674 11.0882 7.875C11.0882 8.80326 10.7288 9.6935 10.089 10.3499C9.44912 11.0063 8.58133 11.375 7.67647 11.375C6.77161 11.375 5.90382 11.0063 5.26399 10.3499C4.62416 9.6935 4.26471 8.80326 4.26471 7.875C4.26471 6.94674 4.62416 6.0565 5.26399 5.40013C5.90382 4.74375 6.77161 4.375 7.67647 4.375ZM21.3235 13.125C22.0325 13.125 22.6029 13.7102 22.6029 14.4375V14.875H27.7206C28.4296 14.875 29 15.4602 29 16.1875C29 16.9148 28.4296 17.5 27.7206 17.5H14.9265C14.2175 17.5 13.6471 16.9148 13.6471 16.1875C13.6471 15.4602 14.2175 14.875 14.9265 14.875H20.0441V14.4375C20.0441 13.7102 20.6145 13.125 21.3235 13.125ZM15.3529 25.375V19.25H27.2941V25.375C27.2941 26.8242 26.148 28 24.7353 28H17.9118C16.4991 28 15.3529 26.8242 15.3529 25.375ZM2.55882 17.5H9.38235C10.795 17.5 11.9412 18.6758 11.9412 20.125C11.9412 21.5742 10.795 22.75 9.38235 22.75H8.52941C8.52941 23.718 7.7671 24.5 6.82353 24.5H3.41176C2.4682 24.5 1.70588 23.718 1.70588 22.75V18.375C1.70588 17.8937 2.08971 17.5 2.55882 17.5ZM9.38235 21C9.85147 21 10.2353 20.6063 10.2353 20.125C10.2353 19.6437 9.85147 19.25 9.38235 19.25H8.52941V21H9.38235ZM1.27941 25.375H10.6618C11.3708 25.375 11.9412 25.9602 11.9412 26.6875C11.9412 27.4148 11.3708 28 10.6618 28H1.27941C0.570404 28 0 27.4148 0 26.6875C0 25.9602 0.570404 25.375 1.27941 25.375Z" fill="white"/>
</svg>
