<svg xmlns="http://www.w3.org/2000/svg" width="52" height="57" viewBox="0 0 52 57" fill="none">
  <path d="M10.8959 10.13C10.8959 10.13 12.0609 6.68897 14.8083 4.53004C17.5556 2.37112 43.0247 11.6196 43.0247 11.6196C43.0247 11.6196 47.4742 13.1799 50.1064 17.3139C51.8757 20.095 52.8634 24.2055 50.9886 29.1691C46.52 40.9913 34.9266 39.6243 31.906 38.9503C30.4868 38.6344 27.0298 37.7341 27.0298 37.7341C27.0298 37.7341 19.133 44.1449 9.63007 39.2284C2.39495 35.4856 3.29155 29.8903 3.29155 29.8903C3.29155 29.8903 -1.57981 25.1011 0.529836 18.4311C3.071 10.3987 10.8959 10.13 10.8959 10.13Z" fill="#5B9821"/>
  <path d="M27.375 24.4364C33.9677 23.357 36.0246 20.59 37.813 18.0257C39.7836 15.1974 39.2562 12.8263 40.6274 12.7603C41.9987 12.6944 43.0919 15.1267 41.5864 19.3738C39.4575 25.3792 35.08 26.2607 34.9937 27.8775C34.9266 29.1597 39.6541 29.2492 43.9213 27.2034C50.1016 24.2337 50.1016 17.2809 50.1016 17.2809C50.1016 17.2809 49.0037 15.0513 46.8748 13.5004C44.746 11.9496 43.1638 11.1388 43.1638 11.1388C43.1638 11.1388 40.6226 1.75833 29.0915 0.202771C17.5604 -1.35278 12.8185 6.55227 12.8185 6.55227C12.8185 6.55227 13.2308 9.11658 15.2206 12.0863C16.8076 14.4573 18.4474 14.3819 18.3084 15.73C18.2173 16.6068 15.3549 16.8755 12.3342 15.5933C9.58212 14.4243 8.90128 12.8263 8.14852 12.8263C7.39576 12.8263 1.15314 16.2438 3.75663 23.489C5.81833 29.2257 12.6315 30.3004 13.8493 30.5078C17.4214 31.1159 19.4783 28.8203 16.9371 26.996C14.3959 25.1718 11.5815 24.0923 12.2 22.2728C12.8664 20.3024 15.2446 22.3577 18.1022 23.5738C20.9262 24.7758 24.3448 24.9361 27.375 24.4364Z" fill="#8BC02B"/>
  <path d="M14.2665 31.9597C14.2665 31.9597 15.8487 31.8701 16.5008 31.6863C17.1529 31.5024 18.0351 30.9556 18.0351 30.9556C18.0351 30.9556 24.1482 37.2439 24.7811 37.7718C25.3996 38.2856 26.1284 30.4513 26.1284 30.4513C26.1284 30.4513 27.5237 30.6634 28.8278 30.4607C30.5443 30.192 31.7142 29.6546 31.7142 29.6546C31.7142 29.6546 30.8799 34.4769 30.5539 36.3058C30.3477 37.4795 30.2758 40.7415 30.2758 40.7415L25.8072 44.3994L22.4078 42.1556C22.4078 42.1556 22.3982 41.2742 21.8948 40.6755C20.3317 38.8183 14.2665 31.9597 14.2665 31.9597ZM29.8539 42.7119L33.2533 38.6863C33.2533 38.6863 34.4615 38.7758 35.3485 38.7758C36.2307 38.7758 37.7698 38.592 37.7698 38.592C37.7698 38.592 34.9793 42.2971 33.4882 44.126C31.9971 45.955 30.0457 48.2459 30.0457 48.2459L28.1853 42.9381L29.8539 42.7119Z" fill="#6D4B41"/>
  <path d="M27.4374 39.5065C26.0469 39.629 22.4126 42.1604 22.4126 42.1604C22.4126 42.1604 22.5996 46.4593 22.4605 48.887C22.3215 51.3146 21.3482 55.2789 22.2448 56.2829C23.0215 57.1503 29.5518 57.3152 30.5251 56.3065C31.5032 55.2977 30.5539 51.1307 30.5539 48.4297C30.5539 45.7287 30.2758 40.7415 30.2758 40.7415C30.2758 40.7415 29.0196 39.3698 27.4374 39.5065Z" fill="#865B50"/>
</svg>